<?xml version="1.0" encoding="UTF-8" standalone="no"?>
<!-- Created with Inkscape (http://www.inkscape.org/) -->

<svg
   width="412.10681mm"
   height="280.01117mm"
   viewBox="0 0 412.10681 280.01117"
   version="1.1"
   id="svg1"
   xml:space="preserve"
   inkscape:version="1.4.2 (ebf0e940, 2025-05-08)"
   sodipodi:docname="admin_first_floor_trace.svg"
   xmlns:inkscape="http://www.inkscape.org/namespaces/inkscape"
   xmlns:sodipodi="http://sodipodi.sourceforge.net/DTD/sodipodi-0.dtd"
   xmlns="http://www.w3.org/2000/svg"
   xmlns:svg="http://www.w3.org/2000/svg"><sodipodi:namedview
     id="namedview1"
     pagecolor="#ffffff"
     bordercolor="#000000"
     borderopacity="0.25"
     inkscape:showpageshadow="2"
     inkscape:pageopacity="0.0"
     inkscape:pagecheckerboard="0"
     inkscape:deskcolor="#d1d1d1"
     inkscape:document-units="mm"
     inkscape:zoom="0.3344956"
     inkscape:cx="408.07712"
     inkscape:cy="342.30645"
     inkscape:window-width="1440"
     inkscape:window-height="872"
     inkscape:window-x="0"
     inkscape:window-y="28"
     inkscape:window-maximized="0"
     inkscape:current-layer="layer3" /><defs
     id="defs1" /><g
     inkscape:groupmode="layer"
     id="layer3"
     inkscape:label="room "
     transform="translate(96.50102,-19.774799)"><path
       style="opacity:0.7;fill:#00ecec;fill-opacity:1;stroke:none;stroke-width:0.264583"
       d="m 14.237856,20.565791 59.324398,1.581984 3.163967,40.34059 -58.533406,-0.790991 z"
       id="path39"
       inkscape:label="room 213" /><path
       style="opacity:0.7;fill:#00ecec;fill-opacity:1;stroke:none;stroke-width:0.264583"
       d="m 85.427134,21.356783 34.803646,0.790992 3.95496,43.504559 -37.967616,-3.163969 z"
       id="path40"
       inkscape:label="room 212" /><path
       style="opacity:0.7;fill:#00ecec;fill-opacity:1;stroke:none;stroke-width:0.264583"
       d="m 127.34971,21.356783 20.56579,3.163968 v 37.176623 l -17.40182,0.790991 z"
       id="path41"
       inkscape:label="room 211" /><path
       style="opacity:0.7;fill:#00ecec;fill-opacity:1;stroke:none;stroke-width:0.264583"
       d="m 156.61641,20.565791 55.36944,0.790992 v 40.340591 l -56.16043,1.581984 z"
       id="path42"
       inkscape:label="room 210" /><path
       style="opacity:0.7;fill:#00ecec;fill-opacity:1;stroke:none;stroke-width:0.264583"
       d="m 253.11743,22.147775 58.5334,0.790992 -2.37297,64.86134 -56.95142,3.16397 z"
       id="path43"
       inkscape:label="room 208" /><path
       style="opacity:0.7;fill:#00ecec;fill-opacity:1;stroke:none;stroke-width:0.264583"
       d="m 258.65437,100.45598 52.20548,0.79099 -0.79099,30.0577 h -52.20548 z"
       id="path44"
       inkscape:label="room 207" /><path
       style="opacity:0.7;fill:#00ecec;fill-opacity:1;stroke:none;stroke-width:0.264583"
       d="m 215.94081,19.774799 28.47571,1.581984 0.79099,48.250511 -31.63968,-1.581983 z"
       id="path45"
       inkscape:label="room 209" /><path
       style="opacity:0.7;fill:#00ecec;fill-opacity:1;stroke:none;stroke-width:0.264583"
       d="m 254.69941,174.80922 57.74241,2.37298 -2.37296,22.93877 -51.41449,1.58198 z"
       id="path46"
       inkscape:label="room 202" /><path
       style="opacity:0.7;fill:#00ecec;fill-opacity:1;stroke:none;stroke-width:0.264583"
       d="m 246.7895,211.19486 67.23432,-1.58199 -1.582,79.89019 -66.44332,-1.58197 z"
       id="path47"
       inkscape:label="room 201" /><path
       style="opacity:0.7;fill:#00ecec;fill-opacity:1;stroke:none;stroke-width:0.264583"
       d="m -94.128044,45.086542 65.652332,0.790993 2.372977,98.873995 -70.398285,0.79099 z"
       id="path48"
       inkscape:label="room 214" /><path
       style="opacity:0.7;fill:#00ecec;fill-opacity:1;stroke:none;stroke-width:0.264583"
       d="m -96.50102,149.49748 63.279358,0.79099 -1.581984,37.96762 -60.906381,-1.58199 z"
       id="path49"
       inkscape:label="room 215" /><path
       style="opacity:0.7;fill:#00ecec;fill-opacity:1;stroke:none;stroke-width:0.264583"
       d="m -94.919037,195.37502 64.070351,-0.791 0.79099,64.07035 -64.861341,2.37298 z"
       id="path50"
       inkscape:label="room 216" /><path
       style="opacity:0.7;fill:#00ecec;fill-opacity:1;stroke:none;stroke-width:0.264583"
       d="m 17.401823,215.94081 59.324398,0.79099 2.372976,45.87753 -61.697374,2.37299 z"
       id="path51"
       sodipodi:insensitive="true"
       inkscape:label="room 217" /><path
       style="opacity:0.7;fill:#00ecec;fill-opacity:1;stroke:none;stroke-width:0.264583"
       d="m 158.98939,216.7318 54.57844,1.58198 3.16397,39.5496 -62.48837,0.79099 z"
       id="path53"
       inkscape:label="room 208" /><path
       style="opacity:0.7;fill:#00ecec;fill-opacity:1;stroke:none;stroke-width:0.264583"
       d="m 179.55518,101.24697 h 32.43067 l 2.37297,18.19282 -34.01265,0.79099 z"
       id="path54"
       inkscape:label="room 206" /><path
       style="opacity:0.7;fill:#00ecec;fill-opacity:1;stroke:none;stroke-width:0.264583"
       d="m 181.13716,130.51368 h 36.38563 l -1.58198,18.9838 -33.22167,0.79099 z"
       id="path55"
       inkscape:label="room 205" /><path
       style="opacity:0.7;fill:#00ecec;fill-opacity:1;stroke:none;stroke-width:0.264583"
       d="m 180.34617,158.19839 35.59464,1.58199 -1.58199,16.61083 -33.22166,0.79099 z"
       id="path56"
       inkscape:label="room 204" /><path
       style="opacity:0.7;fill:#00ecec;fill-opacity:1;stroke:none;stroke-width:0.264583"
       d="m 179.55518,187.4651 35.59464,1.58198 0.79099,17.40182 -35.59464,0.791 z"
       id="path57"
       inkscape:label="room 203" /><path
       style="opacity:0.7;fill:#00ecec;fill-opacity:1;stroke:none;stroke-width:0.264583"
       d="m 84.636141,213.56783 20.565789,1.58199 3.95496,44.29555 -23.729756,2.37297 z"
       id="path58" /><path
       style="opacity:0.7;fill:#00ecec;fill-opacity:1;stroke:none;stroke-width:0.264583"
       d="m 113.90284,217.52279 h 31.63968 v 39.5496 l -30.05769,1.58198 z"
       id="path59"
       inkscape:label="room 219" /></g><g
     inkscape:groupmode="layer"
     id="layer5"
     inkscape:label="no path"
     transform="translate(96.50102,-19.774799)"><path
       style="opacity:0.7;fill:#ec0b00;fill-opacity:1;stroke:none;stroke-width:0.264583"
       d="m 15.028847,102.82896 151.870453,0.79099 0.791,97.29201 -147.915501,3.95496 z"
       id="path38"
       inkscape:label="open to sky" /></g><g
     inkscape:groupmode="layer"
     id="layer6"
     inkscape:label="corridor"
     transform="translate(96.50102,-19.774799)"><path
       style="opacity:0.7;fill:#21ec00;fill-opacity:1;stroke:none;stroke-width:0.264583"
       d="M -16.610831,72.771261 245.9985,75.144237 v 20.56579 L 4.7459518,94.919037 7.9099197,219.89577 -21.356783,221.47775 Z"
       id="path60" /><path
       style="opacity:0.7;fill:#21ec00;fill-opacity:1;stroke:none;stroke-width:0.264583"
       d="m 227.0147,96.50102 h 19.7748 L 242.83454,295.83099 9.4919037,299.78596 8.7009117,275.26519 223.85073,272.89223 Z"
       id="path61" /></g><g
     inkscape:groupmode="layer"
     id="layer8"
     inkscape:label="starircase"
     transform="translate(96.50102,-19.774799)"><path
       style="opacity:0.7;fill:#eccc00;fill-opacity:1;stroke:none;stroke-width:0.264583"
       d="M -18.684271,21.798316 6.2280902,22.836331 V 70.585022 L -18.165263,74.737083 Z"
       id="path36"
       inkscape:label="staircase 3" /><path
       style="opacity:0.7;fill:#eccc00;fill-opacity:1;stroke:none;stroke-width:0.264583"
       d="m -21.379025,225.57053 27.9236244,0.4363 0.4363066,65.446 h -32.28669 z"
       id="path37"
       inkscape:label="staircase 2 " /><path
       style="opacity:0.7;fill:#ecd800;fill-opacity:1;stroke:none;stroke-width:0.264583"
       d="m 254.69941,140.00558 59.32441,-0.79099 1.58197,31.63967 -64.07034,-3.16396 z"
       id="path62"
       inkscape:label="staircase 1 " /></g></svg>
