<?xml version="1.0" encoding="UTF-8" standalone="no"?>
<!-- Created with Inkscape (http://www.inkscape.org/) -->

<svg
   width="508mm"
   height="317.5mm"
   viewBox="0 0 508 317.5"
   version="1.1"
   id="svg1"
   xml:space="preserve"
   inkscape:version="1.4.2 (ebf0e940, 2025-05-08)"
   sodipodi:docname="admin_ground_floor_trace.svg"
   xmlns:inkscape="http://www.inkscape.org/namespaces/inkscape"
   xmlns:sodipodi="http://sodipodi.sourceforge.net/DTD/sodipodi-0.dtd"
   xmlns="http://www.w3.org/2000/svg"
   xmlns:svg="http://www.w3.org/2000/svg"><sodipodi:namedview
     id="namedview1"
     pagecolor="#ffffff"
     bordercolor="#000000"
     borderopacity="0.25"
     inkscape:showpageshadow="2"
     inkscape:pageopacity="0.0"
     inkscape:pagecheckerboard="0"
     inkscape:deskcolor="#d1d1d1"
     inkscape:document-units="mm"
     inkscape:zoom="0.35974601"
     inkscape:cx="721.34226"
     inkscape:cy="468.38601"
     inkscape:window-width="1440"
     inkscape:window-height="900"
     inkscape:window-x="0"
     inkscape:window-y="0"
     inkscape:window-maximized="0"
     inkscape:current-layer="layer9" /><defs
     id="defs1" /><g
     inkscape:groupmode="layer"
     id="layer9"
     inkscape:label="rooms"
     transform="translate(73.818748,-12.964583)"><path
       style="opacity:0.7;fill:#006aec;fill-opacity:1;stroke-width:0.264583"
       d="m 100.16707,55.118388 59.88825,-0.529984 1.05997,41.338793 -59.35826,2.119937 z"
       id="path1"
       inkscape:label="107" /><path
       style="opacity:0.7;fill:#006aec;fill-opacity:1;stroke-width:0.264583"
       d="m 166.94512,55.118388 60.94822,0.529987 v 39.218854 h -60.94822 z"
       id="path2"
       inkscape:label="106" /><path
       style="opacity:0.7;fill:#006aec;fill-opacity:1;stroke-width:0.264583"
       d="m 235.31312,55.118388 57.76832,0.529987 0.52999,39.748838 -55.64838,-0.529984 z"
       id="path3"
       inkscape:label="105" /><path
       style="opacity:0.7;fill:#006aec;fill-opacity:1;stroke-width:0.264583"
       d="m 327.00044,54.05842 58.29829,1.059968 1.05998,64.128132 -55.64839,4.23987 z"
       id="path4"
       inkscape:label="104" /><path
       style="opacity:0.7;fill:#006aec;fill-opacity:1;stroke-width:0.264583"
       d="m 334.42023,131.43616 51.40849,-1.58995 2.11995,20.13941 -34.97898,1.05997 0.52999,9.00973 -18.54946,1.05997 z"
       id="path5"
       inkscape:label="103 washroom" /><path
       style="opacity:0.7;fill:#006aec;fill-opacity:1;stroke-width:0.264583"
       d="m 331.7703,203.51405 22.25937,-0.52998 0.52996,31.79907 -22.78933,1.58995 z"
       id="path6"
       inkscape:label="102" /><path
       style="opacity:0.7;fill:#006aec;fill-opacity:1;stroke-width:0.264583"
       d="m 329.12039,242.20292 55.64836,0.52999 -0.52999,66.24806 -58.29829,3.70991 z"
       id="path7"
       inkscape:label="101" /><path
       style="opacity:0.7;fill:#006aec;fill-opacity:1;stroke-width:0.264583"
       d="m 258.63244,130.90617 37.09891,0.52999 0.52999,19.60943 -37.09891,1.05997 z"
       id="path8"
       inkscape:label="119" /><path
       style="opacity:0.7;fill:#006aec;fill-opacity:1;stroke-width:0.264583"
       d="m 258.10246,158.46537 37.0989,-2.11994 -0.52996,22.78934 -36.03896,-1.58996 z"
       id="path9"
       inkscape:label="118" /><path
       style="opacity:0.7;fill:#006aec;fill-opacity:1;stroke-width:0.264583"
       d="m 255.45254,187.61452 38.68888,-1.58995 v 18.54945 l -36.03896,1.05997 z"
       id="path10"
       inkscape:label="117" /><path
       style="opacity:0.7;fill:#006aec;fill-opacity:1;stroke-width:0.264583"
       d="m 259.16243,212.52379 36.03893,-0.52998 1.05998,22.25935 h -40.27882 z"
       id="path11"
       inkscape:label="116" /><path
       style="opacity:0.7;fill:#006aec;fill-opacity:1;stroke-width:0.264583"
       d="m 270.8221,240.61297 23.31932,2.11994 1.05994,40.80879 -23.8493,1.05998 z"
       id="path12"
       inkscape:label="115" /><path
       style="opacity:0.7;fill:#006aec;fill-opacity:1;stroke-width:0.264583"
       d="m 234.25316,241.67294 29.67913,-1.58995 v 46.10865 l -27.5592,-2.11995 z"
       id="path13"
       inkscape:label="114" /><path
       style="opacity:0.7;fill:#006aec;fill-opacity:1;stroke-width:0.264583"
       d="m 192.38438,240.08299 h 37.09892 l -1.58996,43.45871 -35.50896,-0.52998 z"
       id="path14"
       inkscape:label="113" /><path
       style="opacity:0.7;fill:#006aec;fill-opacity:1;stroke-width:0.264583"
       d="m 168.53508,243.26289 15.36955,-2.11994 0.52998,42.92874 h -14.83957 z"
       id="path15"
       inkscape:label="112" /><path
       style="opacity:0.7;fill:#006aec;fill-opacity:1;stroke-width:0.264583"
       d="m 100.16707,239.02302 59.35827,1.05997 1.05997,42.92873 h -59.88825 z"
       id="path16"
       inkscape:label="111" /><path
       style="opacity:0.7;fill:#006aec;fill-opacity:1;stroke-width:0.264583"
       d="m -6.8897986,173.30494 63.5981426,0.52998 2.649921,115.00665 -64.6581101,-2.64993 z"
       id="path17"
       inkscape:label="109" /><path
       style="opacity:0.7;fill:#006aec;fill-opacity:1;stroke-width:0.264583"
       d="M -5.2998451,56.178359 58.298296,55.648375 55.648375,165.88515 -6.8897986,166.41514 -4.7698606,60.418236 Z"
       id="path18"
       inkscape:label="108" /><path
       style="opacity:0.7;fill:#006aec;fill-opacity:1;stroke-width:0.264583"
       d="m 138.32596,157.93539 78.96769,1.05996 v 39.74884 l -77.37774,2.11994 z"
       id="path19"
       inkscape:label="110" /><path
       style="opacity:0.7;fill:#006aec;fill-opacity:1;stroke-width:0.264583"
       d="m 366.74927,219.41359 18.01948,-1.05997 v 16.9595 l -16.42952,-1.05996 z"
       id="path20"
       inkscape:label="room" /><path
       style="opacity:0.7;fill:#006bec;fill-opacity:1;stroke-width:0.264583"
       d="m 301.42235,52.969617 h 16.39536 v 42.249576 l -14.50359,-0.630589 z"
       id="path106" /></g><g
     inkscape:groupmode="layer"
     id="layer10"
     inkscape:label="windows"
     transform="translate(73.818748,-12.964583)"><path
       style="opacity:0.7;fill:#11ec00;fill-opacity:1;stroke-width:0.264583"
       d="m 386.88869,55.118388 h 7.94978 l -1.05997,16.429522 -6.35982,0.529984 z"
       id="path21" /><path
       style="opacity:0.7;fill:#11ec00;fill-opacity:1;stroke-width:0.264583"
       d="m 387.41868,81.087631 7.94978,-0.529984 -0.52999,16.959503 -7.41979,0.529984 z"
       id="path22" /><path
       style="opacity:0.7;fill:#11ec00;fill-opacity:1;stroke-width:0.264583"
       d="m 386.88869,108.11684 7.94978,-1.05997 -0.52999,19.07944 -7.94977,1.05997 z"
       id="path23" /><path
       style="opacity:0.7;fill:#11ec00;fill-opacity:1;stroke-width:0.264583"
       d="m 367.27926,47.698606 v 6.889798 l 19.60943,0.529984 -1.05997,-5.829829 z"
       id="path24" /><path
       style="opacity:0.7;fill:#11ec00;fill-opacity:1;stroke-width:0.264583"
       d="m 346.07989,48.758575 v 6.359813 l 21.19937,-1.059968 -2.11992,-6.359814 z"
       id="path25" /><path
       style="opacity:0.7;fill:#11ec00;fill-opacity:1;stroke-width:0.264583"
       d="m 321.7006,49.288559 15.36954,-2.119937 3.17992,6.359814 -19.60943,1.059968 z"
       id="path26" /><path
       style="opacity:0.7;fill:#11ec00;fill-opacity:1;stroke-width:0.264583"
       d="m 300.50123,48.228591 17.48949,1.059968 -0.52999,4.239877 -17.48949,0.529984 z"
       id="path27" /><path
       style="opacity:0.7;fill:#11ec00;fill-opacity:1;stroke-width:0.264583"
       d="m 276.65193,49.818543 h 18.01947 v 5.299845 l -18.01947,-1.589952 z"
       id="path28" /><path
       style="opacity:0.7;fill:#11ec00;fill-opacity:1;stroke-width:0.264583"
       d="m 249.09272,48.758575 h 6.35982 l 2.64992,1.059968 v 3.179908 l -9.53972,0.529985 z"
       id="path29" /><path
       style="opacity:0.7;fill:#11ec00;fill-opacity:1;stroke-width:0.264583"
       d="m 234.25316,48.758575 11.65965,1.059968 -1.05996,3.179908 h -9.00974 z"
       id="path30" /><path
       style="opacity:0.7;fill:#11ec00;fill-opacity:1;stroke-width:0.264583"
       d="m 210.93384,49.288559 h 9.00973 l 7.94977,-0.529984 -1.58995,3.709892 -13.24962,1.589953 z"
       id="path31" /><path
       style="opacity:0.7;fill:#11ec00;fill-opacity:1;stroke-width:0.264583"
       d="m 183.37464,49.818543 h 5.29985 l 1.58995,3.709893 -6.8898,1.059968 z"
       id="path32" /><path
       style="opacity:0.7;fill:#11ec00;fill-opacity:1;stroke-width:0.264583"
       d="m 161.11529,49.818543 10.06971,-1.059968 -1.05997,4.239876 -7.94977,1.589953 z"
       id="path33" /><path
       style="opacity:0.7;fill:#11ec00;fill-opacity:1;stroke-width:0.264583"
       d="m 138.32596,49.288559 h 10.0697 v 3.709892 h -10.59969 z"
       id="path34" /><path
       style="opacity:0.7;fill:#11ec00;fill-opacity:1;stroke-width:0.264583"
       d="m 115.00664,48.758575 10.59969,-0.529984 -1.05997,6.359813 -10.0697,0.529984 z"
       id="path35" /><path
       style="opacity:0.7;fill:#11ec00;fill-opacity:1;stroke-width:0.264583"
       d="m 387.94867,218.88361 h 3.70988 l 1.05997,7.41978 h -5.82983 z"
       id="path36" /><path
       style="opacity:0.7;fill:#11ec00;fill-opacity:1;stroke-width:0.264583"
       d="m 389.00864,231.60323 5.29984,-1.05997 -0.52998,7.94977 -5.82983,0.52999 z"
       id="path37" /><path
       style="opacity:0.7;fill:#11ec00;fill-opacity:1;stroke-width:0.264583"
       d="m 387.94867,243.26289 h 6.8898 v 20.13941 l -6.35982,-1.05996 z"
       id="path38" /><path
       style="opacity:0.7;fill:#11ec00;fill-opacity:1;stroke-width:0.264583"
       d="m 387.41868,268.17216 h 7.41979 l -0.52999,17.48949 h -5.82983 z"
       id="path39" /><path
       style="opacity:0.7;fill:#11ec00;fill-opacity:1;stroke-width:0.264583"
       d="m 389.53863,295.20136 5.29984,0.52999 -1.05997,17.48949 h -2.64994 z"
       id="path41" /><path
       style="opacity:0.7;fill:#11ec00;fill-opacity:1;stroke-width:0.264583"
       d="m 341.84002,311.6309 30.73908,2.64991 -1.58993,6.35982 -24.90928,-1.05998 z"
       id="path42" /><path
       style="opacity:0.7;fill:#11ec00;fill-opacity:1;stroke-width:0.264583"
       d="m 162.70525,152.10556 v 6.35981 l 12.18964,-0.52998 -1.05997,-4.23988 z"
       id="path43" /><path
       style="opacity:0.7;fill:#11ec00;fill-opacity:1;stroke-width:0.264583"
       d="m 182.31467,151.57557 2.11994,6.8898 12.71963,-0.52998 -1.05997,-5.29985 z"
       id="path44" /><path
       style="opacity:0.7;fill:#11ec00;fill-opacity:1;stroke-width:0.264583"
       d="m 163.23523,204.04404 v 6.35981 l 13.24961,-1.58995 -2.11994,-5.29985 z"
       id="path45" /><path
       style="opacity:0.7;fill:#11ec00;fill-opacity:1;stroke-width:0.264583"
       d="m 182.84466,204.04404 0.52998,5.29984 14.83957,0.52999 -3.17991,-5.29985 z"
       id="path46" /><path
       style="opacity:0.7;fill:#11ec00;fill-opacity:1;stroke-width:0.264583"
       d="m 131.43616,160.05532 0.52998,14.30958 h 7.41979 l -1.05997,-14.30958 -11.12968,-1.05997 z"
       id="path47" /><path
       style="opacity:0.7;fill:#11ec00;fill-opacity:1;stroke-width:0.264583"
       d="m 131.96614,189.20447 v 15.36955 l 5.29985,-0.52998 -0.52999,-15.89954 z"
       id="path48" /><path
       style="opacity:0.7;fill:#11ec00;fill-opacity:1;stroke-width:0.264583"
       d="m 164.82518,124.54636 -1.05997,6.35981 22.78934,-0.52998 -0.52998,-5.29984 z"
       id="path49" /><path
       style="opacity:0.7;fill:#11ec00;fill-opacity:1;stroke-width:0.264583"
       d="m 188.67449,125.07635 1.05996,5.29984 18.54946,-0.52998 -0.52998,-3.7099 z"
       id="path50" /><path
       style="opacity:0.7;fill:#11ec00;fill-opacity:1;stroke-width:0.264583"
       d="M 208.28391,126.13631 Z"
       id="path51" /><path
       style="opacity:0.7;fill:#11ec00;fill-opacity:1;stroke-width:0.264583"
       d="m 208.8139,124.54636 1.05997,6.8898 19.60943,-0.52999 v -6.88979 z"
       id="path52" /><path
       style="opacity:0.7;fill:#11ec00;fill-opacity:1;stroke-width:0.264583"
       d="m 250.15269,136.736 0.52998,12.18965 6.88981,-0.52999 -0.52999,-11.65966 z"
       id="path53" /><path
       style="opacity:0.7;fill:#11ec00;fill-opacity:1;stroke-width:0.264583"
       d="m 252.27263,164.2952 v 8.47975 l 7.41978,1.05997 -0.52998,-12.18964 z"
       id="path54" /><path
       style="opacity:0.7;fill:#11ec00;fill-opacity:1;stroke-width:0.264583"
       d="m 251.21266,189.20447 v 13.24961 l 5.82983,1.05997 -1.05997,-13.24961 z"
       id="path55" /><path
       style="opacity:0.7;fill:#11ec00;fill-opacity:1;stroke-width:0.264583"
       d="m 252.27263,211.99381 -0.52999,7.41978 7.41979,-0.52998 -1.05997,-7.41979 z"
       id="path57" /><path
       style="opacity:0.7;fill:#11ec00;fill-opacity:1;stroke-width:0.264583"
       d="m 249.62271,224.71343 1.05996,7.41979 h 4.76987 v -8.47975 z"
       id="path58" /><path
       style="opacity:0.7;fill:#11ec00;fill-opacity:1;stroke-width:0.264583"
       d="m 239.553,235.31312 -0.52998,5.82983 8.47975,-1.05996 v -3.17991 z"
       id="path59" /><path
       style="opacity:0.7;fill:#11ec00;fill-opacity:1;stroke-width:0.264583"
       d="m 214.64373,232.13322 v 6.8898 l 12.18964,0.52998 -0.52998,-6.35981 z"
       id="path60" /><path
       style="opacity:0.7;fill:#11ec00;fill-opacity:1;stroke-width:0.264583"
       d="m 190.79443,232.6632 v 5.82983 l 13.77959,0.52999 -2.64992,-5.82983 z"
       id="path61" /><path
       style="opacity:0.7;fill:#11ec00;fill-opacity:1;stroke-width:0.264583"
       d="m 168.53508,232.6632 v 5.82983 l 15.36955,0.52999 -1.05997,-5.82983 z"
       id="path62" /><path
       style="opacity:0.7;fill:#11ec00;fill-opacity:1;stroke-width:0.264583"
       d="m 144.68577,232.13322 -0.52998,6.8898 14.83956,1.05997 v -9.00974 z"
       id="path63" /><path
       style="opacity:0.7;fill:#11ec00;fill-opacity:1;stroke-width:0.264583"
       d="m 125.07635,231.60323 v 6.8898 l 12.71962,0.52999 v -7.41979 z"
       id="path64" /><path
       style="opacity:0.7;fill:#11ec00;fill-opacity:1;stroke-width:0.264583"
       d="m 101.75703,231.07325 -1.05997,6.8898 14.30958,0.52998 v -5.82983 z"
       id="path65" /><path
       style="opacity:0.7;fill:#11ec00;fill-opacity:1;stroke-width:0.264583"
       d="M 357.20956,149.98562 Z"
       id="path66" /><path
       style="opacity:0.7;fill:#11ec00;fill-opacity:1;stroke-width:0.264583"
       d="m 357.73955,149.45563 13.7796,-0.52998 0.52999,5.29984 h -11.65968 z"
       id="path67" /><path
       style="opacity:0.7;fill:#11ec00;fill-opacity:1;stroke-width:0.264583"
       d="m 91.157337,147.3357 7.949768,2.11993 -0.529984,22.25935 h -5.299848 z"
       id="path68" /><path
       style="opacity:0.7;fill:#11ec00;fill-opacity:1;stroke-width:0.264583"
       d="m 91.687321,197.15424 7.419784,-0.52998 -1.589955,21.72936 h -3.179905 z"
       id="path69" /></g><g
     inkscape:groupmode="layer"
     id="layer11"
     inkscape:label="doors"
     transform="translate(73.818748,-12.964583)"><path
       style="opacity:0.7;fill:#c600ec;fill-opacity:1;stroke-width:0.264583"
       d="m 318.52071,59.358265 11.12967,0.529984 -2.11995,9.539721 -7.41979,-0.529984 z"
       id="path70" /><path
       style="opacity:0.7;fill:#c600ec;fill-opacity:1;stroke-width:0.264583"
       d="m 320.64063,109.70679 h 9.00975 l -0.52999,10.06971 -9.53974,-0.52998 z"
       id="path71" /><path
       style="opacity:0.7;fill:#c600ec;fill-opacity:1;stroke-width:0.264583"
       d="m 324.8805,140.97588 h 6.8898 l 1.05997,8.47975 h -6.8898 z"
       id="path72" /><path
       style="opacity:0.7;fill:#c600ec;fill-opacity:1;stroke-width:0.264583"
       d="m 307.92099,97.51715 7.94978,1.589955 -0.52999,6.359815 h -7.94977 z"
       id="path73" /><path
       style="opacity:0.7;fill:#c600ec;fill-opacity:1;stroke-width:0.264583"
       d="m 284.07169,96.457181 7.41979,1.589953 1.58996,7.949766 h -9.00975 z"
       id="path74" /><path
       style="opacity:0.7;fill:#c600ec;fill-opacity:1;stroke-width:0.264583"
       d="m 238.49303,95.927197 h 7.94977 l -0.52999,11.659663 -7.41978,-1.05997 z"
       id="path75" /><path
       style="opacity:0.7;fill:#c600ec;fill-opacity:1;stroke-width:0.264583"
       d="m 211.99381,96.987166 h 12.71962 l 1.05997,12.189644 h -9.53972 z"
       id="path76" /><path
       style="opacity:0.7;fill:#c600ec;fill-opacity:1;stroke-width:0.264583"
       d="m 169.06506,96.987166 8.47975,0.529984 v 8.47975 h -7.41978 z"
       id="path77" /><path
       style="opacity:0.7;fill:#c600ec;fill-opacity:1;stroke-width:0.264583"
       d="m 147.86568,98.577121 h 9.00974 v 6.359809 l -10.06971,1.05997 z"
       id="path78" /><path
       style="opacity:0.7;fill:#c600ec;fill-opacity:1;stroke-width:0.264583"
       d="m 136.736,110.23678 h 4.23988 l 1.05997,11.65966 -5.82983,-1.58996 z"
       id="path79" /><path
       style="opacity:0.7;fill:#c600ec;fill-opacity:1;stroke-width:0.264583"
       d="m 75.787786,118.71653 6.889798,-0.52998 v 6.8898 h -8.479753 z"
       id="path80" /><path
       style="opacity:0.7;fill:#c600ec;fill-opacity:1;stroke-width:0.264583"
       d="m 55.648375,151.04559 11.659658,2.11993 -1.059968,9.00974 -10.069706,1.05997 z"
       id="path81" /><path
       style="opacity:0.7;fill:#c600ec;fill-opacity:1;stroke-width:0.264583"
       d="m 55.648375,224.71343 h 9.009735 l -0.529985,9.00974 -9.539721,-0.52998 z"
       id="path82" /><path
       style="opacity:0.7;fill:#c600ec;fill-opacity:1;stroke-width:0.264583"
       d="m 55.648375,177.01483 h 9.009735 l -1.059969,11.12967 -5.829829,-0.52998 z"
       id="path83" /><path
       style="opacity:0.7;fill:#c600ec;fill-opacity:1;stroke-width:0.264583"
       d="m 102.81699,283.01172 h 6.35982 v 7.41979 l -5.82983,0.52998 z"
       id="path84" /><path
       style="opacity:0.7;fill:#c600ec;fill-opacity:1;stroke-width:0.264583"
       d="m 149.45563,284.07169 9.53972,-0.52999 v 6.88981 l -10.59969,1.58996 z"
       id="path85" /><path
       style="opacity:0.7;fill:#c600ec;fill-opacity:1;stroke-width:0.264583"
       d="m 171.71498,284.07169 9.53972,0.52999 0.52999,7.94977 -10.06971,-1.58996 z"
       id="path86" /><path
       style="opacity:0.7;fill:#c600ec;fill-opacity:1;stroke-width:0.264583"
       d="m 216.76367,285.66165 8.47975,-0.52998 v 7.94977 h -8.47975 z"
       id="path87" /><path
       style="opacity:0.7;fill:#c600ec;fill-opacity:1;stroke-width:0.264583"
       d="m 239.02302,287.25161 7.94976,-1.58996 1.05997,5.82983 -10.0697,1.05997 z"
       id="path88" /><path
       style="opacity:0.7;fill:#c600ec;fill-opacity:1;stroke-width:0.264583"
       d="m 284.07169,285.66165 9.00975,-0.52998 v 8.47976 h -10.06972 z"
       id="path89" /><path
       style="opacity:0.7;fill:#c600ec;fill-opacity:1;stroke-width:0.264583"
       d="m 294.14142,244.85285 h 5.82982 l 3.70989,0.52998 v 12.71963 h -7.94978 z"
       id="path90" /><path
       style="opacity:0.7;fill:#c600ec;fill-opacity:1;stroke-width:0.264583"
       d="m 316.93074,246.97278 11.12968,-1.05997 -0.52999,12.18965 -5.82983,1.05997 -0.52999,-11.12968 z"
       id="path91" /><path
       style="opacity:0.7;fill:#c600ec;fill-opacity:1;stroke-width:0.264583"
       d="m 318.52071,299.44126 7.94975,0.52998 -2.64991,10.0697 h -7.94978 z"
       id="path92" /><path
       style="opacity:0.7;fill:#c600ec;fill-opacity:1;stroke-width:0.264583"
       d="m 295.20136,187.61452 5.82983,-1.05997 v 10.59969 l -4.76985,0.52998 z"
       id="path93" /><path
       style="opacity:0.7;fill:#c600ec;fill-opacity:1;stroke-width:0.264583"
       d="m 294.6714,215.7037 11.65966,-1.05997 -1.05997,12.18964 -7.94978,-0.52998 z"
       id="path94" /><path
       style="opacity:0.7;fill:#c600ec;fill-opacity:1;stroke-width:0.264583"
       d="m 294.6714,158.46537 7.94975,-1.05997 -1.05997,10.59969 h -6.88978 z"
       id="path95" /><path
       style="opacity:0.7;fill:#c600ec;fill-opacity:1;stroke-width:0.264583"
       d="m 295.73135,131.43616 h 9.00975 v 9.53972 l -8.47976,1.58996 z"
       id="path96" /><path
       style="opacity:0.7;fill:#c600ec;fill-opacity:1;stroke-width:0.264583"
       d="m -15.899535,153.16552 h 9.5397209 l -0.5299845,11.65966 -7.9497674,-0.52998 z"
       id="path97" /><path
       style="opacity:0.7;fill:#c600ec;fill-opacity:1;stroke-width:0.264583"
       d="m -17.489489,178.60478 10.5996904,-1.58995 -1.5899537,9.53972 h -6.3598137 z"
       id="path98" /></g><g
     inkscape:groupmode="layer"
     id="layer12"
     inkscape:label="open to sky"
     transform="translate(73.818748,-12.964583)"><path
       style="opacity:0.7;fill:#ec0002;fill-opacity:1;stroke-width:0.264583"
       d="m 360.38946,153.16552 28.61918,0.52999 v 7.41978 l -28.0892,0.52999 z"
       id="path99" /><path
       style="opacity:0.7;fill:#ec0002;fill-opacity:1;stroke-width:0.264583"
       d="m 104.40695,134.61607 140.4459,-2.64993 -1.05997,26.49923 -115.53663,-3.70989 -0.52998,57.23833 h 97.51715 l -0.52999,-54.05842 24.90928,0.52998 -1.05997,71.01793 -146.27573,-0.52999 z"
       id="path100" /><path
       style="opacity:0.7;fill:#ec0021;fill-opacity:1;stroke-width:0.264583"
       d="m 357.73955,203.51405 31.79908,-0.52998 -1.58996,9.53972 -26.49924,-1.58995 z"
       id="path104" /></g><g
     inkscape:groupmode="layer"
     id="layer15"
     inkscape:label="exit"
     transform="translate(73.818748,-12.964583)"><path
       style="opacity:0.7;fill:#ec0021;fill-opacity:1;stroke-width:0.264583"
       d="m 123.48639,313.22084 64.65811,0.52998 -0.52998,6.35982 -64.12813,1.05997 z"
       id="path105" /></g><g
     inkscape:groupmode="layer"
     id="layer13"
     inkscape:label="coridoor"
     transform="translate(73.818748,-12.964583)"><path
       style="opacity:0.7;fill:#c9ec00;fill-opacity:1;stroke-width:0.264583"
       d="m 94.867229,105.46692 224.183441,1.58995 v 206.16397 l -252.272621,1.05997 -2.649924,-186.55454 31.799072,2.64992 -2.119937,162.70525 212.5238,1.58996 -1.05997,-168.0051 -210.403861,2.11994 z"
       id="path101" /></g><g
     inkscape:groupmode="layer"
     id="layer14"
     inkscape:label="staircase"
     transform="translate(73.818748,-12.964583)"><path
       style="opacity:0.7;fill:#ec7a00;fill-opacity:1;stroke-width:0.264583"
       d="M 64.65811,52.998451 H 94.337245 L 93.80726,115.53662 63.598141,116.06661 Z"
       id="path102" /><path
       style="opacity:0.7;fill:#ec7a00;fill-opacity:1;stroke-width:0.264583"
       d="m 317.99072,170.12503 h 69.42796 l -0.52999,30.7391 -67.83802,-2.64992 -0.52996,-24.37929 z"
       id="path103" /></g></svg>
