<?xml version="1.0" encoding="UTF-8" standalone="no"?>
<!-- Created with Inkscape (http://www.inkscape.org/) -->

<svg
   width="508mm"
   height="317.5mm"
   viewBox="0 0 508 317.5"
   version="1.1"
   id="svg1"
   xml:space="preserve"
   inkscape:version="1.4.2 (ebf0e940, 2025-05-08)"
   sodipodi:docname="cse_first_trace.svg"
   xmlns:inkscape="http://www.inkscape.org/namespaces/inkscape"
   xmlns:sodipodi="http://sodipodi.sourceforge.net/DTD/sodipodi-0.dtd"
   xmlns="http://www.w3.org/2000/svg"
   xmlns:svg="http://www.w3.org/2000/svg"><sodipodi:namedview
     id="namedview1"
     pagecolor="#ffffff"
     bordercolor="#000000"
     borderopacity="0.25"
     inkscape:showpageshadow="2"
     inkscape:pageopacity="0.0"
     inkscape:pagecheckerboard="0"
     inkscape:deskcolor="#d1d1d1"
     inkscape:document-units="mm"
     inkscape:zoom="0.3294363"
     inkscape:cx="799.85114"
     inkscape:cy="456.84098"
     inkscape:window-width="1440"
     inkscape:window-height="872"
     inkscape:window-x="0"
     inkscape:window-y="28"
     inkscape:window-maximized="0"
     inkscape:current-layer="layer23" /><defs
     id="defs1" /><g
     inkscape:groupmode="layer"
     id="layer23"
     inkscape:label="room"
     transform="translate(145.52083,15.875)"><path
       style="opacity:0.5;fill:#1779f1;fill-opacity:1;stroke-width:0.264583"
       d="m 240.97215,111.55791 61.52481,-0.35359 0.88397,61.17121 -63.29276,-0.1768 z"
       id="path1" /><path
       style="opacity:0.5;fill:#1779f1;fill-opacity:1;stroke-width:0.264583"
       d="m 240.97215,44.022057 61.34801,0.176797 -1.06077,62.408786 -58.34249,1.41436 z"
       id="path2" /><path
       style="opacity:0.5;fill:#1779f1;fill-opacity:1;stroke-width:0.264583"
       d="m 240.79535,180.33132 0.70719,38.01102 59.22647,1.59115 0.70718,-41.19333 z"
       id="path3" /><path
       style="opacity:0.5;fill:#1779f1;fill-opacity:1;stroke-width:0.264583"
       d="m 195.53573,228.77326 v 61.34802 l 106.60764,0.1768 0.17679,-62.0552 z"
       id="path4" /><path
       style="opacity:0.5;fill:#1779f1;fill-opacity:1;stroke-width:0.264583"
       d="m 131.71258,227.88929 -0.17679,38.71818 h 34.29831 l 0.53038,-37.83421 z"
       id="path5" /><path
       style="opacity:0.5;fill:#1779f1;fill-opacity:1;stroke-width:0.264583"
       d="m 170.78437,228.24288 -0.17679,38.71821 h 17.67954 l -0.3536,-38.36462 z"
       id="path6" /><path
       style="opacity:0.5;fill:#1779f1;fill-opacity:1;stroke-width:0.264583"
       d="m 44.552443,229.65724 -1.237567,37.48064 22.453018,-0.17679 33.767923,0.17679 -0.176794,-38.7182 z"
       id="path7" /><path
       style="opacity:0.5;fill:#1779f1;fill-opacity:1;stroke-width:0.264583"
       d="m -69.834188,228.95006 0.35359,59.75684 69.65739341,0.884 36.24306059,-0.53041 -0.883979,-59.22645 z"
       id="path8" /><path
       style="opacity:0.5;fill:#1779f1;fill-opacity:1;stroke-width:0.264583"
       d="m -71.602141,204.1987 0.353589,16.26518 62.0551904,-0.17679 0.353591,-15.558 z"
       id="path9" /><path
       style="opacity:0.5;fill:#1779f1;fill-opacity:1;stroke-width:0.264583"
       d="m -70.364574,159.11587 60.287236,0.70718 0.707181,38.01102 -61.348009,1.06077 z"
       id="path10" /><path
       style="opacity:0.5;fill:#1779f1;fill-opacity:1;stroke-width:0.264583"
       d="m -70.756882,45.733107 -0.431443,107.429653 60.617937,-0.21572 0.6471669,-107.861101 z"
       id="path11" /><path
       style="opacity:0.5;fill:#1779f1;fill-opacity:1;stroke-width:0.264583"
       d="m 15.963443,44.007328 108.939707,0.215722 1.07861,61.48083 -106.135318,1.07861 z"
       id="path12" /><path
       style="opacity:0.5;fill:#1779f1;fill-opacity:1;stroke-width:0.264583"
       d="m 130.51193,45.085939 83.91594,0.215722 -0.21573,58.460719 -83.26877,1.07861 z"
       id="path13" /><path
       style="opacity:0.5;fill:#1770f1;fill-opacity:1;stroke-width:0.264583"
       d="M 272.71241,20.749857 V 41.00567 h 27.17242 L 299.3908,18.279636 Z"
       id="path18" /><path
       style="opacity:0.5;fill:#1770f1;fill-opacity:1;stroke-width:0.264583"
       d="m -67.684059,21.243901 -0.988087,15.809415 h 26.184344 v -15.31537 z"
       id="path19" /></g><g
     inkscape:groupmode="layer"
     id="layer24"
     inkscape:label="passage"
     transform="translate(145.52083,15.875)"><path
       style="opacity:0.5;fill:#f1de17;fill-opacity:1;stroke-width:0.264583"
       d="M -3.8649772,21.533444 H 9.9385127 L 9.1103031,114.01683 82.2688,112.08434 l 135.82634,1.38035 2.48462,-93.311595 13.52743,0.27607 0.55214,123.679265 -8.83424,-1.65642 0.55214,-12.14707 -10.21458,0.82821 0.27607,-13.25135 -71.22601,2.7607 -0.27607,10.49065 -56.594306,-0.82821 -0.55214,-10.76672 -73.710634,-0.27607 0.276069,11.31886 -8.5581632,1.10428 -0.27607,70.12173 9.6624432,0.27607 0.552139,10.21458 88.342332,0.82821 0.27607,9.38637 -106.0107988,-1.65641 z"
       id="path14" /><path
       style="opacity:0.5;fill:#f1de17;fill-opacity:1;stroke-width:0.264583"
       d="m 225.54902,143.28022 8.55817,0.27607 -1.38035,76.47134 -114.2929,3.03676 2.20856,6.90175 -5.79747,1.10428 1.38035,41.96262 -8.28209,0.27606 -0.55214,-45.27545 7.17781,-0.55214 v -4.96926 l -9.1103,-1.38034 -0.27607,-9.93852 111.25613,1.10428 -0.55214,-9.1103 10.76672,-1.93249 z"
       id="path15" /><path
       style="opacity:0.5;fill:#f1dc17;fill-opacity:1;stroke-width:0.264583"
       d="m 117.05359,262.81844 h 7.72996 v 11.59493 l 63.77212,-0.27607 0.27607,14.6317 -143.832362,1.38036 -0.552141,-17.94455 72.882423,1.10429 z"
       id="path17" /></g><g
     inkscape:groupmode="layer"
     id="layer25"
     inkscape:label="open to sky"
     transform="translate(145.52083,15.875)"><path
       style="opacity:0.5;fill:#f1173b;fill-opacity:1;stroke-width:0.264583"
       d="M 18.220606,134.16992 17.116327,123.67927 H 82.2688 l -0.276072,11.04279 66.532822,-0.55214 v -10.49065 l 65.42854,-1.10428 v 12.14707 l 10.21458,-0.27607 -0.27607,64.8764 -8.28209,0.82821 -0.27607,10.76672 H 17.668467 l 0.552139,-11.871 -10.2145819,0.82821 0.5521396,-65.42854 z"
       id="path16" /></g><g
     inkscape:groupmode="layer"
     id="layer26"
     inkscape:label="staircase"
     transform="translate(145.52083,15.875)"><path
       style="opacity:0.5;fill:#f17a17;fill-opacity:1;stroke-width:0.264583"
       d="m 233.18887,19.761769 v 18.279636 l 39.02949,1.482132 -0.49403,-21.243901 z"
       id="path20" /><path
       style="opacity:0.5;fill:#f17a17;fill-opacity:1;stroke-width:0.264583"
       d="m 112.14804,231.70674 1.97617,32.60692 14.32729,-0.49405 -0.49405,-34.58309 z"
       id="path21" /><path
       style="opacity:0.5;fill:#f17a17;fill-opacity:1;stroke-width:0.264583"
       d="M -41.993759,20.749857 -42.487802,39.029494 -2.4702211,38.535448 -5.9285306,17.785592 Z"
       id="path22" /></g></svg>
