<?xml version="1.0" encoding="UTF-8" standalone="no"?>
<!-- Created with Inkscape (http://www.inkscape.org/) -->

<svg
   width="508mm"
   height="335.30325mm"
   viewBox="0 0 508 335.30325"
   version="1.1"
   id="svg1"
   xml:space="preserve"
   inkscape:version="1.4.2 (ebf0e940, 2025-05-08)"
   sodipodi:docname="cse_ground_trace.svg"
   xmlns:inkscape="http://www.inkscape.org/namespaces/inkscape"
   xmlns:sodipodi="http://sodipodi.sourceforge.net/DTD/sodipodi-0.dtd"
   xmlns="http://www.w3.org/2000/svg"
   xmlns:svg="http://www.w3.org/2000/svg"><sodipodi:namedview
     id="namedview1"
     pagecolor="#ffffff"
     bordercolor="#000000"
     borderopacity="0.25"
     inkscape:showpageshadow="2"
     inkscape:pageopacity="0.0"
     inkscape:pagecheckerboard="0"
     inkscape:deskcolor="#d1d1d1"
     inkscape:document-units="mm"
     inkscape:zoom="0.46519182"
     inkscape:cx="836.21419"
     inkscape:cy="716.90856"
     inkscape:window-width="1440"
     inkscape:window-height="872"
     inkscape:window-x="0"
     inkscape:window-y="28"
     inkscape:window-maximized="0"
     inkscape:current-layer="layer16" /><defs
     id="defs1" /><g
     inkscape:groupmode="layer"
     id="layer16"
     inkscape:label="rooms"
     transform="translate(145.52083,15.875)"><path
       style="opacity:0.49;fill:#5491e7;fill-opacity:1;stroke-width:0.264583"
       d="m 129.43427,211.85608 h 23.40619 l -0.20005,40.21065 h -22.00583 z"
       id="path1" /><path
       style="opacity:0.49;fill:#5491e7;fill-opacity:1;stroke-width:0.264583"
       d="m 155.6412,212.25619 h 31.80842 v 38.81028 l -31.60836,0.60016 z"
       id="path2" /><path
       style="opacity:0.49;fill:#5491e7;fill-opacity:1;stroke-width:0.264583"
       d="m 195.27538,213.44724 -0.86532,30.28644 27.69045,-1.73066 -4.03819,31.72865 h 84.51356 l -1.73064,-59.99599 z"
       id="path3" /><path
       style="opacity:0.49;fill:#5491e7;fill-opacity:1;stroke-width:0.264583"
       d="m 68.072364,212.29347 30.574874,0.28845 v 37.78593 l -29.421105,1.44221 z"
       id="path4" /><path
       style="opacity:0.49;fill:#5491e7;fill-opacity:1;stroke-width:0.264583"
       d="m 43.554776,213.1588 h 20.190955 l 0.288441,39.22814 -21.344723,-1.15377 z"
       id="path5" /><path
       style="opacity:0.49;fill:#5491e7;fill-opacity:1;stroke-width:0.264583"
       d="m 17.018091,214.31257 17.594975,-0.57689 v 61.14976 H 1.4422111 l 0.5768844,-41.82413 17.8834175,-0.28844 z"
       id="path6" /><path
       style="opacity:0.49;fill:#5491e7;fill-opacity:1;stroke-width:0.264583"
       d="m -69.803017,214.31257 59.419097,-0.28844 1.1537689,57.68845 -61.4381939,0.57687 z"
       id="path7" /><path
       style="opacity:0.49;fill:#5491e7;fill-opacity:1;stroke-width:0.264583"
       d="m -71.822113,188.64121 0.288443,15.86432 62.0150767,1.44222 0.8653267,-17.30654 z"
       id="path8" /><path
       style="opacity:0.49;fill:#5491e7;fill-opacity:1;stroke-width:0.264583"
       d="m -69.226133,143.64423 55.380906,-0.86533 1.153769,40.09347 -57.111559,-0.28844 z"
       id="path9" /><path
       style="opacity:0.49;fill:#5491e7;fill-opacity:1;stroke-width:0.264583"
       d="m -70.091461,29.99799 24.806032,0.865327 -0.288441,23.652263 38.6512567,-2.019096 -3.1728647,82.782916 -59.995983,2.88442 z"
       id="path10" /><path
       style="opacity:0.49;fill:#5491e7;fill-opacity:1;stroke-width:0.264583"
       d="m -41.247237,29.421105 0.865325,15.575881 29.132665,0.865328 V 29.99799 Z"
       id="path11" /><path
       style="opacity:0.49;fill:#5491e7;fill-opacity:1;stroke-width:0.264583"
       d="m 15.287438,64.034172 h 18.748744 l 0.288441,25.094475 -17.883416,0.576884 z"
       id="path12" /><path
       style="opacity:0.49;fill:#5491e7;fill-opacity:1;stroke-width:0.264583"
       d="m 15.57588,29.421105 0.288442,30.286433 26.248242,0.288444 -2.307537,30.863317 33.747739,-0.865327 0.576884,-60.284423 z"
       id="path13" /><path
       style="opacity:0.49;fill:#5491e7;fill-opacity:1;stroke-width:0.264583"
       d="M 79.898496,29.132665 148.2593,28.55578 148.83618,92.301511 81.052264,93.166836 Z"
       id="path14" /><path
       style="opacity:0.49;fill:#5491e7;fill-opacity:1;stroke-width:0.264583"
       d="m 154.60503,29.99799 57.11156,-0.576885 -0.57689,60.86131 h -56.53467 z"
       id="path15" /><path
       style="opacity:0.49;fill:#5491e7;fill-opacity:1;stroke-width:0.264583"
       d="m 242.00302,28.55578 26.24826,0.288441 -0.5769,14.998996 -26.82513,1.153769 z"
       id="path16" /><path
       style="opacity:0.49;fill:#5491e7;fill-opacity:1;stroke-width:0.264583"
       d="m 274.02012,29.709549 25.95978,-0.865328 1.44221,14.422112 -26.82512,0.865328 V 31.728645 Z"
       id="path17" /><path
       style="opacity:0.49;fill:#5491e7;fill-opacity:1;stroke-width:0.264583"
       d="m 242.29146,51.631156 -0.28844,113.069354 59.13064,-2.59598 0.5769,-110.473374 z"
       id="path18" /><path
       style="opacity:0.49;fill:#5491e7;fill-opacity:1;stroke-width:0.264583"
       d="m 239.98393,169.89247 26.82513,-0.86533 v 21.63317 l -25.67136,0.86532 z"
       id="path19" /><path
       style="opacity:0.49;fill:#5491e7;fill-opacity:1;stroke-width:0.264583"
       d="m 272.86635,168.16181 28.84421,-0.57688 -0.5769,36.63216 -27.97889,0.28844 z"
       id="path20" /><path
       style="opacity:0.49;fill:#5491e7;fill-opacity:1;stroke-width:0.264583"
       d="m 194.98694,249.21408 h 18.4603 v 23.94069 l -19.32563,0.28845 z"
       id="path21" /><path
       style="opacity:0.49;fill:#3078e1;fill-opacity:1;stroke-width:0.264583"
       d="m 306.88634,-3.4098484 h 14.77603 l -0.56833,25.0055544 h -15.91262 z"
       id="path72" /><path
       style="opacity:0.49;fill:#3078e1;fill-opacity:1;stroke-width:0.264583"
       d="m -83.541284,-1.1366161 13.639392,-0.5683081 -1.136615,26.7104792 h -9.661237 z"
       id="path73" /></g><g
     inkscape:groupmode="layer"
     id="layer17"
     inkscape:label="windows"
     transform="translate(145.52083,15.875)"><path
       style="opacity:0.49;fill:#54e7b2;fill-opacity:1;stroke-width:0.264583"
       d="m 303.77833,148.23652 h 4.26141 l -0.30438,7.0009 -4.56581,0.30439 z"
       id="path22" /><path
       style="opacity:0.49;fill:#54e7b2;fill-opacity:1;stroke-width:0.264583"
       d="m 303.47393,124.18994 5.78337,0.30439 -0.60878,6.39212 -5.78334,0.60878 z"
       id="path23" /><path
       style="opacity:0.49;fill:#54e7b2;fill-opacity:1;stroke-width:0.264583"
       d="m 302.2564,109.57936 -0.30438,-8.82723 6.39212,1.21755 v 6.39213 z"
       id="path24" /><path
       style="opacity:0.49;fill:#54e7b2;fill-opacity:1;stroke-width:0.264583"
       d="m 302.56077,78.531872 h 6.08775 v 7.914066 L 302.2564,87.3591 Z"
       id="path25" /><path
       style="opacity:0.49;fill:#54e7b2;fill-opacity:1;stroke-width:0.264583"
       d="m 303.16955,55.70284 4.87019,-0.304388 0.3044,7.914066 -6.08774,0.608775 z"
       id="path26" /><path
       style="opacity:0.49;fill:#54e7b2;fill-opacity:1;stroke-width:0.264583"
       d="m 302.56077,32.873807 h 5.47897 l -1.21753,7.609678 h -2.4351 z"
       id="path27" /><path
       style="opacity:0.49;fill:#54e7b2;fill-opacity:1;stroke-width:0.264583"
       d="m 303.77833,192.67704 4.26141,-0.30439 -0.30438,8.52284 h -3.04387 z"
       id="path28" /><path
       style="opacity:0.49;fill:#54e7b2;fill-opacity:1;stroke-width:0.264583"
       d="m 304.38711,216.11484 h 3.95703 v 7.91407 h -3.95703 z"
       id="path29" /><path
       style="opacity:0.49;fill:#54e7b2;fill-opacity:1;stroke-width:0.264583"
       d="m 302.56077,238.63949 6.08775,0.60877 0.60878,7.00091 -6.08775,0.91316 z"
       id="path30" /><path
       style="opacity:0.49;fill:#54e7b2;fill-opacity:1;stroke-width:0.264583"
       d="m 266.33871,275.77473 h 8.82724 v 5.17456 h -7.30531 z"
       id="path31" /><path
       style="opacity:0.49;fill:#54e7b2;fill-opacity:1;stroke-width:0.264583"
       d="m 244.11846,276.07911 h 7.0009 l 0.30439,5.47896 h -7.91407 z"
       id="path32" /><path
       style="opacity:0.49;fill:#54e7b2;fill-opacity:1;stroke-width:0.264583"
       d="m 220.98504,276.07911 8.52284,-0.60878 v 6.69652 l -8.82723,-0.60878 z"
       id="path33" /><path
       style="opacity:0.49;fill:#54e7b2;fill-opacity:1;stroke-width:0.264583"
       d="m 197.85162,276.99226 8.52284,-0.30437 0.30438,3.34824 -9.13161,-0.30437 z"
       id="path34" /><path
       style="opacity:0.49;fill:#54e7b2;fill-opacity:1;stroke-width:0.264583"
       d="m 154.93304,253.25007 7.30529,0.30439 0.60877,3.95703 -8.52284,0.60878 z"
       id="path35" /><path
       style="opacity:0.49;fill:#54e7b2;fill-opacity:1;stroke-width:0.264583"
       d="m 154.32426,206.98323 8.52284,-0.60877 v 4.26142 l -7.60968,-0.30439 z"
       id="path36" /><path
       style="opacity:0.49;fill:#54e7b2;fill-opacity:1;stroke-width:0.264583"
       d="m 176.54452,207.28762 h 8.52284 v 3.34826 l -9.13161,0.91316 z"
       id="path37" /><path
       style="opacity:0.49;fill:#54e7b2;fill-opacity:1;stroke-width:0.264583"
       d="m 198.76478,207.28762 h 7.60968 l 0.30438,3.34826 -8.21845,0.91316 0.60878,-7.30529 z"
       id="path38" /><path
       style="opacity:0.49;fill:#54e7b2;fill-opacity:1;stroke-width:0.264583"
       d="m 180.50155,91.924906 8.82723,0.913162 v 3.04387 h -8.21845 z"
       id="path39" /><path
       style="opacity:0.49;fill:#54e7b2;fill-opacity:1;stroke-width:0.264583"
       d="m 42.005421,93.142455 8.827225,-0.608774 v 4.565806 h -5.478967 z"
       id="path40" /><path
       style="opacity:0.49;fill:#54e7b2;fill-opacity:1;stroke-width:0.264583"
       d="m -7.3052905,125.71187 h 3.0438709 l 0.3043873,8.82723 -4.8701939,-0.60877 z"
       id="path41" /><path
       style="opacity:0.49;fill:#54e7b2;fill-opacity:1;stroke-width:0.264583"
       d="m -9.1316132,170.15239 5.4789678,0.60878 -0.9131612,9.13161 h -4.2614196 z"
       id="path42" /><path
       style="opacity:0.49;fill:#54e7b2;fill-opacity:1;stroke-width:0.264583"
       d="m -77.009939,34.395743 4.870196,-0.608775 -0.304387,7.305292 -5.478968,0.304387 z"
       id="path43" /><path
       style="opacity:0.49;fill:#54e7b2;fill-opacity:1;stroke-width:0.264583"
       d="m -77.314323,55.094065 4.261418,0.304387 v 8.522841 h -4.261418 z"
       id="path44" /><path
       style="opacity:0.49;fill:#54e7b2;fill-opacity:1;stroke-width:0.264583"
       d="m -77.618711,79.140647 h 5.174581 v 6.392129 l -5.174581,0.913162 z"
       id="path45" /><path
       style="opacity:0.49;fill:#54e7b2;fill-opacity:1;stroke-width:0.264583"
       d="m -77.314323,101.66529 h 4.870193 l -0.304387,7.30529 h -3.652647 z"
       id="path46" /><path
       style="opacity:0.49;fill:#54e7b2;fill-opacity:1;stroke-width:0.264583"
       d="m -77.618711,124.49433 h 4.870194 v 8.52284 l -5.174581,0.30438 z"
       id="path47" /><path
       style="opacity:0.49;fill:#54e7b2;fill-opacity:1;stroke-width:0.264583"
       d="m -75.79239,216.41923 h 3.957034 l -0.608774,7.91407 h -4.261422 z"
       id="path48" /><path
       style="opacity:0.49;fill:#54e7b2;fill-opacity:1;stroke-width:0.264583"
       d="m -77.314323,238.63949 3.957031,0.30439 0.913162,9.436 h -7.000904 z"
       id="path49" /><path
       style="opacity:0.49;fill:#54e7b2;fill-opacity:1;stroke-width:0.264583"
       d="m -44.13613,276.38348 7.609676,-0.60875 0.608775,4.2614 -7.305289,0.60878 z"
       id="path50" /><path
       style="opacity:0.49;fill:#54e7b2;fill-opacity:1;stroke-width:0.264583"
       d="m -19.785162,276.68789 h 5.174581 l 2.13071,-0.60878 v 3.34824 l -8.218452,1.21756 z"
       id="path51" /><path
       style="opacity:0.49;fill:#54e7b2;fill-opacity:1;stroke-width:0.264583"
       d="m 0.91316132,276.07911 10.65354868,-0.30438 -1.217548,4.56578 -9.1316136,0.3044 z"
       id="path52" /><path
       style="opacity:0.49;fill:#54e7b2;fill-opacity:1;stroke-width:0.264583"
       d="m 25.872904,276.07911 h 4.870195 2.130708 v 3.34824 h -6.087743 z"
       id="path53" /><path
       style="opacity:0.49;fill:#54e7b2;fill-opacity:1;stroke-width:0.264583"
       d="m 42.918581,206.67884 10.044776,0.30439 h 1.826321 v 3.34826 l -8.218451,0.60877 z"
       id="path54" /><path
       style="opacity:0.49;fill:#54e7b2;fill-opacity:1;stroke-width:0.264583"
       d="m 23.13342,206.07007 h 10.653548 l -0.608774,5.47897 -7.30529,-0.60878 z"
       id="path55" /><path
       style="opacity:0.49;fill:#54e7b2;fill-opacity:1;stroke-width:0.264583"
       d="m 67.878324,206.07007 h 8.218453 l -0.304387,5.47897 -8.52284,0.30439 z"
       id="path56" /><path
       style="opacity:0.49;fill:#54e7b2;fill-opacity:1;stroke-width:0.264583"
       d="m 133.93033,207.28762 8.21845,-0.30439 -0.30439,3.65265 -8.82722,0.91316 z"
       id="path57" /><path
       style="opacity:0.49;fill:#54e7b2;fill-opacity:1;stroke-width:0.264583"
       d="m 19.383139,23.554194 8.832824,0.736069 -0.245356,2.944273 h -7.8514 z"
       id="path58" /><path
       style="opacity:0.49;fill:#54e7b2;fill-opacity:1;stroke-width:0.264583"
       d="m 42.446619,22.818125 9.323536,0.490713 v 3.925698 h -8.832823 z"
       id="path59" /><path
       style="opacity:0.49;fill:#54e7b2;fill-opacity:1;stroke-width:0.264583"
       d="m 66.000814,23.063481 h 8.587468 v 4.907126 h -9.323536 z"
       id="path60" /><path
       style="opacity:0.49;fill:#54e7b2;fill-opacity:1;stroke-width:0.264583"
       d="m 87.101446,23.308838 9.07818,-0.490713 0.245356,3.680343 -9.07818,0.981424 v -6.37926 z"
       id="path61" /><path
       style="opacity:0.49;fill:#54e7b2;fill-opacity:1;stroke-width:0.264583"
       d="m 137.64482,24.535619 7.8514,-0.245356 v 3.189629 l -6.37926,0.245356 z"
       id="path62" /><path
       style="opacity:0.49;fill:#54e7b2;fill-opacity:1;stroke-width:0.264583"
       d="m 156.29189,22.572769 h 8.83283 v 4.416411 l -7.60605,-0.245356 0.24536,-6.133904 z"
       id="path63" /><path
       style="opacity:0.49;fill:#54e7b2;fill-opacity:1;stroke-width:0.264583"
       d="m 180.82751,24.290263 8.58747,-0.490713 -0.24536,4.416413 -10.30496,-0.245356 0.24536,-4.661769 z"
       id="path64" /><path
       style="opacity:0.49;fill:#54e7b2;fill-opacity:1;stroke-width:0.264583"
       d="m 203.40028,23.308838 7.60604,0.736068 0.49071,4.171057 -8.34211,-0.245356 z"
       id="path65" /></g><g
     inkscape:groupmode="layer"
     id="layer18"
     inkscape:label="open to sky"
     transform="translate(145.52083,15.875)"><path
       style="opacity:0.49;fill:#e75467;fill-opacity:1;stroke-width:0.264583"
       d="m 132.67677,126.92904 69.93071,0.95795 0.47898,50.77162 -72.80458,-0.47898 z"
       id="path67" /><path
       style="opacity:0.49;fill:#e75467;fill-opacity:1;stroke-width:0.264583"
       d="m 24.90683,126.92904 72.325604,-0.47898 1.436931,50.29264 -73.762535,1.91591 z"
       id="path68" /></g><g
     inkscape:groupmode="layer"
     id="layer19"
     inkscape:label="staircase"
     transform="translate(145.52083,15.875)"><path
       style="opacity:0.49;fill:#e16d30;fill-opacity:1;stroke-width:0.264583"
       d="m 101.72714,210.84229 22.16402,-0.56831 v 50.57942 l -22.73232,2.27323 z"
       id="path69" /><path
       style="opacity:0.49;fill:#e16d30;fill-opacity:1;stroke-width:0.264583"
       d="m 236.98446,12.502777 0.56831,14.207701 V -1.7049242 h 68.76527 V 25.573863 l -68.76527,1.136615 -0.56831,-1.136615 z"
       id="path70" /><path
       style="opacity:0.49;fill:#e16d30;fill-opacity:1;stroke-width:0.264583"
       d="M -69.901892,22.164014 -7.9563128,23.868938 -10.229545,-2.2732322 -69.333583,-2.8415403 Z"
       id="path71" /></g><g
     inkscape:groupmode="layer"
     id="layer20"
     inkscape:label="passage"
     transform="translate(145.52083,15.875)"><path
       style="opacity:0.49;fill:#ecdf14;fill-opacity:1;stroke-width:0.264583"
       d="m 220.18835,18.956613 13.48836,1.093651 V 196.49258 l 33.90316,-3.28095 v 12.39471 l -59.05713,0.36455 z"
       id="path74" /><path
       style="opacity:0.49;fill:#ecdf14;fill-opacity:1;stroke-width:0.264583"
       d="m 1.458201,99.157667 210.345489,-0.729099 4.01006,0.364548 -1.09365,24.424864 -89.67936,-2.9164 -0.36456,62.70264 h -17.13386 v -62.70264 l -87.856607,0.7291 1.093651,64.5254 188.837026,-1.45821 -0.36455,21.87302 -199.4089832,1.09365 5.1037032,20.77937 -18.2275124,2.1873 -1.822751,-214.7201 14.2174596,-1.4582 -0.3645504,83.117455 z"
       id="path75" /><path
       style="opacity:0.49;fill:#ecce14;fill-opacity:1;stroke-width:0.264583"
       d="m 36.38233,260.37475 3.068391,19.72536 55.231008,-0.43833 5.260094,-14.90361 33.752287,3.94507 0.43834,12.27357 56.10769,-0.43836 -3.06839,-28.49218 -54.35433,2.1917 -3.50673,-48.65588 h -7.89014 l 3.06839,55.231 h -24.10877 l -1.753371,-6.57512 -52.60096,0.87669 -12.711898,0.87668 z"
       id="path77" /></g><g
     inkscape:groupmode="layer"
     id="layer22"
     inkscape:label="exit"
     transform="translate(145.52083,15.875)"><path
       style="opacity:0.49;fill:#ec1b14;fill-opacity:1;stroke-width:0.264583"
       d="m 99.341084,266.1902 -1.646539,26.34459 40.065745,0.54885 -3.84192,-25.79577 z m 128.429906,53.23804 z"
       id="path76" /></g></svg>
